# xmcd CD database file generated by Grip 2.94
# 
# Track frame offsets:
#       150
#       34975
#       67735
# 
# Disc length: 1935 seconds
# 
# Revision: 3
# Processed by: cddbd v1.4b41PL1 Copyright (c) Steve Scherf et al.
# Submitted via: Grip 2.94
# 
DISCID=1e078d03
DTITLE=Morphine - Come In Houston
DYEAR=1900
DGENRE=
TTITLE0=Morphine Profile/Interview
TTITLE1=Come In, Houston
TTITLE2=Data track (http://www.morphine3.com)
EXTD=
EXTT0=
EXTT1=
EXTT2=
PLAYORDER=
